<svg width="788" height="466" xmlns="http://www.w3.org/2000/svg" xmlns:xlink="http://www.w3.org/1999/xlink" overflow="hidden"><defs><clipPath id="clip0"><path d="M397 127 1185 127 1185 593 397 593Z" fill-rule="evenodd" clip-rule="evenodd"/></clipPath></defs><g clip-path="url(#clip0)" transform="translate(-397 -127)"><path d="M850 339.5C850 246.992 924.768 172 1017 172 1109.23 172 1184 246.992 1184 339.5 1184 432.008 1109.23 507 1017 507 924.768 507 850 432.008 850 339.5Z" fill="#EEECE7" fill-rule="evenodd"/><path d="M683 339.5C683 246.992 757.768 172 850 172 942.232 172 1017 246.992 1017 339.5 1017 432.008 942.232 507 850 507 757.768 507 683 432.008 683 339.5Z" fill="#CBE1DA" fill-rule="evenodd"/><path d="M515 339.5C515 246.992 589.992 172 682.5 172 775.008 172 850 246.992 850 339.5 850 432.008 775.008 507 682.5 507 589.992 507 515 432.008 515 339.5Z" fill="#25499F" fill-rule="evenodd"/><text fill="#FFFFFF" font-family="Segoe UI Emoji,Segoe UI Emoji_MSFontService,sans-serif" font-weight="400" font-size="221" transform="translate(530.662 410)">💻</text></g></svg>